<mxfile host="app.diagrams.net" agent="Mozilla/5.0 (Windows NT 10.0; Win64; x64) AppleWebKit/537.36 (KHTML, like Gecko) Chrome/135.0.0.0 Safari/537.36" version="27.0.1">
  <diagram name="Page-1" id="2YBvvXClWsGukQMizWep">
    <mxGraphModel grid="1" page="1" gridSize="10" guides="1" tooltips="1" connect="1" arrows="1" fold="1" pageScale="1" pageWidth="850" pageHeight="1100" math="0" shadow="0">
      <root>
        <mxCell id="0" />
        <mxCell id="1" parent="0" />
        <mxCell id="aM9ryv3xv72pqoxQDRHE-1" value="User" style="shape=umlLifeline;perimeter=lifelinePerimeter;whiteSpace=wrap;html=1;container=0;dropTarget=0;collapsible=0;recursiveResize=0;outlineConnect=0;portConstraint=eastwest;newEdgeStyle={&quot;edgeStyle&quot;:&quot;elbowEdgeStyle&quot;,&quot;elbow&quot;:&quot;vertical&quot;,&quot;curved&quot;:0,&quot;rounded&quot;:0};" vertex="1" parent="1">
          <mxGeometry x="50" y="30" width="100" height="830" as="geometry" />
        </mxCell>
        <mxCell id="aM9ryv3xv72pqoxQDRHE-2" value="" style="html=1;points=[];perimeter=orthogonalPerimeter;outlineConnect=0;targetShapes=umlLifeline;portConstraint=eastwest;newEdgeStyle={&quot;edgeStyle&quot;:&quot;elbowEdgeStyle&quot;,&quot;elbow&quot;:&quot;vertical&quot;,&quot;curved&quot;:0,&quot;rounded&quot;:0};" vertex="1" parent="aM9ryv3xv72pqoxQDRHE-1">
          <mxGeometry x="45" y="70" width="10" height="710" as="geometry" />
        </mxCell>
        <mxCell id="aM9ryv3xv72pqoxQDRHE-5" value="Event Controller" style="shape=umlLifeline;perimeter=lifelinePerimeter;whiteSpace=wrap;html=1;container=0;dropTarget=0;collapsible=0;recursiveResize=0;outlineConnect=0;portConstraint=eastwest;newEdgeStyle={&quot;edgeStyle&quot;:&quot;elbowEdgeStyle&quot;,&quot;elbow&quot;:&quot;vertical&quot;,&quot;curved&quot;:0,&quot;rounded&quot;:0};" vertex="1" parent="1">
          <mxGeometry x="415" y="40" width="100" height="720" as="geometry" />
        </mxCell>
        <mxCell id="aM9ryv3xv72pqoxQDRHE-6" value="" style="html=1;points=[];perimeter=orthogonalPerimeter;outlineConnect=0;targetShapes=umlLifeline;portConstraint=eastwest;newEdgeStyle={&quot;edgeStyle&quot;:&quot;elbowEdgeStyle&quot;,&quot;elbow&quot;:&quot;vertical&quot;,&quot;curved&quot;:0,&quot;rounded&quot;:0};" vertex="1" parent="aM9ryv3xv72pqoxQDRHE-5">
          <mxGeometry x="45" y="80" width="10" height="130" as="geometry" />
        </mxCell>
        <mxCell id="IKbM3LPFNLdGCTRE3hyD-11" value="" style="html=1;points=[];perimeter=orthogonalPerimeter;outlineConnect=0;targetShapes=umlLifeline;portConstraint=eastwest;newEdgeStyle={&quot;edgeStyle&quot;:&quot;elbowEdgeStyle&quot;,&quot;elbow&quot;:&quot;vertical&quot;,&quot;curved&quot;:0,&quot;rounded&quot;:0};" vertex="1" parent="aM9ryv3xv72pqoxQDRHE-5">
          <mxGeometry x="45" y="310" width="10" height="130" as="geometry" />
        </mxCell>
        <mxCell id="IKbM3LPFNLdGCTRE3hyD-12" value="" style="html=1;points=[];perimeter=orthogonalPerimeter;outlineConnect=0;targetShapes=umlLifeline;portConstraint=eastwest;newEdgeStyle={&quot;edgeStyle&quot;:&quot;elbowEdgeStyle&quot;,&quot;elbow&quot;:&quot;vertical&quot;,&quot;curved&quot;:0,&quot;rounded&quot;:0};" vertex="1" parent="aM9ryv3xv72pqoxQDRHE-5">
          <mxGeometry x="45" y="460" width="10" height="190" as="geometry" />
        </mxCell>
        <mxCell id="aM9ryv3xv72pqoxQDRHE-7" value="likeEvent(eventName)" style="html=1;verticalAlign=bottom;endArrow=block;edgeStyle=elbowEdgeStyle;elbow=horizontal;curved=0;rounded=0;" edge="1" parent="1" target="aM9ryv3xv72pqoxQDRHE-5">
          <mxGeometry x="-0.0588" relative="1" as="geometry">
            <mxPoint x="270" y="150" as="sourcePoint" />
            <Array as="points">
              <mxPoint x="375" y="150" />
              <mxPoint x="355" y="140" />
            </Array>
            <mxPoint x="440" y="150" as="targetPoint" />
            <mxPoint as="offset" />
          </mxGeometry>
        </mxCell>
        <mxCell id="yANQOpBFy9f4tvOdvIwx-1" value="" style="html=1;points=[];perimeter=orthogonalPerimeter;outlineConnect=0;targetShapes=umlLifeline;portConstraint=eastwest;newEdgeStyle={&quot;edgeStyle&quot;:&quot;elbowEdgeStyle&quot;,&quot;elbow&quot;:&quot;vertical&quot;,&quot;curved&quot;:0,&quot;rounded&quot;:0};" vertex="1" parent="1">
          <mxGeometry x="660" y="120" width="10" height="140" as="geometry" />
        </mxCell>
        <mxCell id="yANQOpBFy9f4tvOdvIwx-10" value="ProxyDbController" style="shape=umlLifeline;perimeter=lifelinePerimeter;whiteSpace=wrap;html=1;container=0;dropTarget=0;collapsible=0;recursiveResize=0;outlineConnect=0;portConstraint=eastwest;newEdgeStyle={&quot;edgeStyle&quot;:&quot;elbowEdgeStyle&quot;,&quot;elbow&quot;:&quot;vertical&quot;,&quot;curved&quot;:0,&quot;rounded&quot;:0};" vertex="1" parent="1">
          <mxGeometry x="615" y="45" width="100" height="640" as="geometry" />
        </mxCell>
        <mxCell id="yANQOpBFy9f4tvOdvIwx-11" value="" style="html=1;points=[];perimeter=orthogonalPerimeter;outlineConnect=0;targetShapes=umlLifeline;portConstraint=eastwest;newEdgeStyle={&quot;edgeStyle&quot;:&quot;elbowEdgeStyle&quot;,&quot;elbow&quot;:&quot;vertical&quot;,&quot;curved&quot;:0,&quot;rounded&quot;:0};" vertex="1" parent="yANQOpBFy9f4tvOdvIwx-10">
          <mxGeometry x="45" y="80" width="10" height="140" as="geometry" />
        </mxCell>
        <mxCell id="lEb4GkKGrMhe-9YxrfGL-6" value="" style="html=1;points=[];perimeter=orthogonalPerimeter;outlineConnect=0;targetShapes=umlLifeline;portConstraint=eastwest;newEdgeStyle={&quot;edgeStyle&quot;:&quot;elbowEdgeStyle&quot;,&quot;elbow&quot;:&quot;vertical&quot;,&quot;curved&quot;:0,&quot;rounded&quot;:0};" vertex="1" parent="yANQOpBFy9f4tvOdvIwx-10">
          <mxGeometry x="45" y="330" width="10" height="100" as="geometry" />
        </mxCell>
        <mxCell id="lEb4GkKGrMhe-9YxrfGL-7" value="" style="html=1;points=[];perimeter=orthogonalPerimeter;outlineConnect=0;targetShapes=umlLifeline;portConstraint=eastwest;newEdgeStyle={&quot;edgeStyle&quot;:&quot;elbowEdgeStyle&quot;,&quot;elbow&quot;:&quot;vertical&quot;,&quot;curved&quot;:0,&quot;rounded&quot;:0};" vertex="1" parent="yANQOpBFy9f4tvOdvIwx-10">
          <mxGeometry x="45" y="480" width="10" height="100" as="geometry" />
        </mxCell>
        <mxCell id="yANQOpBFy9f4tvOdvIwx-17" value="&amp;lt;List&amp;gt; : [User]" style="html=1;verticalAlign=bottom;endArrow=open;dashed=1;endSize=8;edgeStyle=elbowEdgeStyle;elbow=horizontal;curved=0;rounded=0;" edge="1" parent="1" target="aM9ryv3xv72pqoxQDRHE-6">
          <mxGeometry x="0.0062" relative="1" as="geometry">
            <mxPoint x="475" y="220" as="targetPoint" />
            <Array as="points">
              <mxPoint x="580" y="220" />
              <mxPoint x="540" y="220" />
            </Array>
            <mxPoint x="660" y="220" as="sourcePoint" />
            <mxPoint as="offset" />
          </mxGeometry>
        </mxCell>
        <mxCell id="yANQOpBFy9f4tvOdvIwx-18" value="EventTabGUI" style="rounded=1;whiteSpace=wrap;html=1;" vertex="1" parent="1">
          <mxGeometry x="220" y="40" width="110" height="40" as="geometry" />
        </mxCell>
        <mxCell id="yANQOpBFy9f4tvOdvIwx-20" value="" style="html=1;points=[];perimeter=orthogonalPerimeter;outlineConnect=0;targetShapes=umlLifeline;portConstraint=eastwest;newEdgeStyle={&quot;edgeStyle&quot;:&quot;elbowEdgeStyle&quot;,&quot;elbow&quot;:&quot;vertical&quot;,&quot;curved&quot;:0,&quot;rounded&quot;:0};" vertex="1" parent="1">
          <mxGeometry x="265" y="160" width="10" height="30" as="geometry" />
        </mxCell>
        <mxCell id="yANQOpBFy9f4tvOdvIwx-21" value="" style="endArrow=classic;html=1;rounded=0;" edge="1" parent="1" source="aM9ryv3xv72pqoxQDRHE-2" target="yANQOpBFy9f4tvOdvIwx-19">
          <mxGeometry width="50" height="50" relative="1" as="geometry">
            <mxPoint x="140" y="170" as="sourcePoint" />
            <mxPoint x="190" y="120" as="targetPoint" />
            <Array as="points">
              <mxPoint x="160" y="130" />
            </Array>
          </mxGeometry>
        </mxCell>
        <mxCell id="yANQOpBFy9f4tvOdvIwx-22" value="clickLikeButton(eventname)" style="text;html=1;align=center;verticalAlign=middle;resizable=0;points=[];autosize=1;strokeColor=none;fillColor=none;" vertex="1" parent="1">
          <mxGeometry x="95" y="108" width="170" height="30" as="geometry" />
        </mxCell>
        <mxCell id="yANQOpBFy9f4tvOdvIwx-24" value="alt" style="shape=umlFrame;whiteSpace=wrap;html=1;pointerEvents=0;" vertex="1" parent="1">
          <mxGeometry x="450" y="350" width="340" height="280" as="geometry" />
        </mxCell>
        <mxCell id="yANQOpBFy9f4tvOdvIwx-25" value="[User has already Liked]" style="text;html=1;align=center;verticalAlign=middle;resizable=0;points=[];autosize=1;strokeColor=none;fillColor=none;" vertex="1" parent="1">
          <mxGeometry x="520" y="350" width="150" height="30" as="geometry" />
        </mxCell>
        <mxCell id="yANQOpBFy9f4tvOdvIwx-30" value="[Event]" style="html=1;verticalAlign=bottom;endArrow=open;dashed=1;endSize=8;curved=0;rounded=0;" edge="1" parent="1">
          <mxGeometry relative="1" as="geometry">
            <mxPoint x="660" y="440" as="sourcePoint" />
            <mxPoint x="470" y="440" as="targetPoint" />
          </mxGeometry>
        </mxCell>
        <mxCell id="yANQOpBFy9f4tvOdvIwx-32" value="[Event]" style="html=1;verticalAlign=bottom;endArrow=open;dashed=1;endSize=8;curved=0;rounded=0;" edge="1" parent="1">
          <mxGeometry relative="1" as="geometry">
            <mxPoint x="660" y="580" as="sourcePoint" />
            <mxPoint x="470" y="580" as="targetPoint" />
          </mxGeometry>
        </mxCell>
        <mxCell id="yANQOpBFy9f4tvOdvIwx-33" value="" style="endArrow=none;dashed=1;html=1;dashPattern=1 3;strokeWidth=2;rounded=0;exitX=0.004;exitY=0.489;exitDx=0;exitDy=0;exitPerimeter=0;entryX=1.003;entryY=0.486;entryDx=0;entryDy=0;entryPerimeter=0;" edge="1" parent="1" source="yANQOpBFy9f4tvOdvIwx-24" target="yANQOpBFy9f4tvOdvIwx-24">
          <mxGeometry width="50" height="50" relative="1" as="geometry">
            <mxPoint x="480" y="460" as="sourcePoint" />
            <mxPoint x="530" y="410" as="targetPoint" />
          </mxGeometry>
        </mxCell>
        <mxCell id="yANQOpBFy9f4tvOdvIwx-34" value="[User has not already liked]" style="text;html=1;align=center;verticalAlign=middle;resizable=0;points=[];autosize=1;strokeColor=none;fillColor=none;" vertex="1" parent="1">
          <mxGeometry x="500" y="480" width="170" height="30" as="geometry" />
        </mxCell>
        <mxCell id="yANQOpBFy9f4tvOdvIwx-35" value="[Event]" style="html=1;verticalAlign=bottom;endArrow=block;curved=0;rounded=0;" edge="1" parent="1">
          <mxGeometry width="80" relative="1" as="geometry">
            <mxPoint x="460" y="670" as="sourcePoint" />
            <mxPoint x="270" y="670" as="targetPoint" />
          </mxGeometry>
        </mxCell>
        <mxCell id="yANQOpBFy9f4tvOdvIwx-38" value="displayEvent()" style="html=1;verticalAlign=bottom;endArrow=block;curved=0;rounded=0;" edge="1" parent="1" source="lEb4GkKGrMhe-9YxrfGL-4">
          <mxGeometry width="80" relative="1" as="geometry">
            <mxPoint x="260" y="760" as="sourcePoint" />
            <mxPoint x="110" y="700" as="targetPoint" />
            <Array as="points">
              <mxPoint x="260" y="700" />
            </Array>
          </mxGeometry>
        </mxCell>
        <mxCell id="lEb4GkKGrMhe-9YxrfGL-1" value="" style="endArrow=none;dashed=1;html=1;dashPattern=1 3;strokeWidth=2;rounded=0;" edge="1" parent="1" source="yANQOpBFy9f4tvOdvIwx-19">
          <mxGeometry width="50" height="50" relative="1" as="geometry">
            <mxPoint x="260" y="1218.888888888889" as="sourcePoint" />
            <mxPoint x="270" y="90" as="targetPoint" />
          </mxGeometry>
        </mxCell>
        <mxCell id="lEb4GkKGrMhe-9YxrfGL-2" value="" style="endArrow=none;dashed=1;html=1;dashPattern=1 3;strokeWidth=2;rounded=0;" edge="1" parent="1" source="lEb4GkKGrMhe-9YxrfGL-4" target="yANQOpBFy9f4tvOdvIwx-19">
          <mxGeometry width="50" height="50" relative="1" as="geometry">
            <mxPoint x="270" y="870" as="sourcePoint" />
            <mxPoint x="270" y="90" as="targetPoint" />
          </mxGeometry>
        </mxCell>
        <mxCell id="yANQOpBFy9f4tvOdvIwx-19" value="" style="html=1;points=[];perimeter=orthogonalPerimeter;outlineConnect=0;targetShapes=umlLifeline;portConstraint=eastwest;newEdgeStyle={&quot;edgeStyle&quot;:&quot;elbowEdgeStyle&quot;,&quot;elbow&quot;:&quot;vertical&quot;,&quot;curved&quot;:0,&quot;rounded&quot;:0};" vertex="1" parent="1">
          <mxGeometry x="265" y="108" width="10" height="82" as="geometry" />
        </mxCell>
        <mxCell id="lEb4GkKGrMhe-9YxrfGL-5" value="" style="endArrow=none;dashed=1;html=1;dashPattern=1 3;strokeWidth=2;rounded=0;" edge="1" parent="1" target="lEb4GkKGrMhe-9YxrfGL-4">
          <mxGeometry width="50" height="50" relative="1" as="geometry">
            <mxPoint x="270" y="870" as="sourcePoint" />
            <mxPoint x="270" y="190" as="targetPoint" />
          </mxGeometry>
        </mxCell>
        <mxCell id="lEb4GkKGrMhe-9YxrfGL-4" value="" style="html=1;points=[];perimeter=orthogonalPerimeter;outlineConnect=0;targetShapes=umlLifeline;portConstraint=eastwest;newEdgeStyle={&quot;edgeStyle&quot;:&quot;elbowEdgeStyle&quot;,&quot;elbow&quot;:&quot;vertical&quot;,&quot;curved&quot;:0,&quot;rounded&quot;:0};" vertex="1" parent="1">
          <mxGeometry x="265" y="630" width="10" height="82" as="geometry" />
        </mxCell>
        <mxCell id="IKbM3LPFNLdGCTRE3hyD-3" value="" style="endArrow=classic;html=1;rounded=0;" edge="1" parent="1">
          <mxGeometry width="50" height="50" relative="1" as="geometry">
            <mxPoint x="470" y="540" as="sourcePoint" />
            <mxPoint x="660" y="540" as="targetPoint" />
          </mxGeometry>
        </mxCell>
        <mxCell id="IKbM3LPFNLdGCTRE3hyD-4" value="&lt;span style=&quot;font-size: 11px; background-color: rgb(222, 222, 222);&quot;&gt;updateLikeCounter()&lt;/span&gt;" style="text;html=1;align=center;verticalAlign=middle;resizable=0;points=[];autosize=1;strokeColor=none;fillColor=none;" vertex="1" parent="1">
          <mxGeometry x="500" y="518" width="120" height="30" as="geometry" />
        </mxCell>
        <mxCell id="IKbM3LPFNLdGCTRE3hyD-6" value="&lt;span style=&quot;font-size: 11px; background-color: rgb(222, 222, 222);&quot;&gt;updateLikeCounter()&lt;/span&gt;" style="text;html=1;align=center;verticalAlign=middle;resizable=0;points=[];autosize=1;strokeColor=none;fillColor=none;" vertex="1" parent="1">
          <mxGeometry x="500" y="370" width="120" height="30" as="geometry" />
        </mxCell>
        <mxCell id="IKbM3LPFNLdGCTRE3hyD-7" value="" style="endArrow=classic;html=1;rounded=0;" edge="1" parent="1">
          <mxGeometry width="50" height="50" relative="1" as="geometry">
            <mxPoint x="470" y="400" as="sourcePoint" />
            <mxPoint x="660" y="400" as="targetPoint" />
          </mxGeometry>
        </mxCell>
        <mxCell id="IKbM3LPFNLdGCTRE3hyD-9" value="" style="endArrow=classic;html=1;rounded=0;" edge="1" parent="1">
          <mxGeometry width="50" height="50" relative="1" as="geometry">
            <mxPoint x="465.5" y="174.5" as="sourcePoint" />
            <mxPoint x="660" y="174.5" as="targetPoint" />
          </mxGeometry>
        </mxCell>
        <mxCell id="IKbM3LPFNLdGCTRE3hyD-10" value="getAccountLikes()" style="text;html=1;align=center;verticalAlign=middle;resizable=0;points=[];autosize=1;strokeColor=none;fillColor=none;" vertex="1" parent="1">
          <mxGeometry x="490" y="148" width="120" height="30" as="geometry" />
        </mxCell>
        <mxCell id="9RLo80tFeQ4q2x56BKta-1" value="User" style="shape=umlLifeline;perimeter=lifelinePerimeter;whiteSpace=wrap;html=1;container=0;dropTarget=0;collapsible=0;recursiveResize=0;outlineConnect=0;portConstraint=eastwest;newEdgeStyle={&quot;edgeStyle&quot;:&quot;elbowEdgeStyle&quot;,&quot;elbow&quot;:&quot;vertical&quot;,&quot;curved&quot;:0,&quot;rounded&quot;:0};" vertex="1" parent="1">
          <mxGeometry x="30" y="1550" width="100" height="1090" as="geometry" />
        </mxCell>
        <mxCell id="9RLo80tFeQ4q2x56BKta-2" value="" style="html=1;points=[];perimeter=orthogonalPerimeter;outlineConnect=0;targetShapes=umlLifeline;portConstraint=eastwest;newEdgeStyle={&quot;edgeStyle&quot;:&quot;elbowEdgeStyle&quot;,&quot;elbow&quot;:&quot;vertical&quot;,&quot;curved&quot;:0,&quot;rounded&quot;:0};" vertex="1" parent="9RLo80tFeQ4q2x56BKta-1">
          <mxGeometry x="45" y="70" width="10" height="1020" as="geometry" />
        </mxCell>
        <mxCell id="9RLo80tFeQ4q2x56BKta-3" value="" style="html=1;points=[];perimeter=orthogonalPerimeter;outlineConnect=0;targetShapes=umlLifeline;portConstraint=eastwest;newEdgeStyle={&quot;edgeStyle&quot;:&quot;elbowEdgeStyle&quot;,&quot;elbow&quot;:&quot;vertical&quot;,&quot;curved&quot;:0,&quot;rounded&quot;:0};" vertex="1" parent="9RLo80tFeQ4q2x56BKta-1">
          <mxGeometry x="50" y="120" width="10" height="80" as="geometry" />
        </mxCell>
        <mxCell id="9RLo80tFeQ4q2x56BKta-4" value="EventManagemen&lt;span style=&quot;background-color: transparent; color: light-dark(rgb(0, 0, 0), rgb(255, 255, 255));&quot;&gt;t&lt;/span&gt;&lt;div&gt;&lt;span style=&quot;background-color: transparent; color: light-dark(rgb(0, 0, 0), rgb(255, 255, 255));&quot;&gt;Dialog&lt;/span&gt;&lt;/div&gt;" style="shape=umlLifeline;perimeter=lifelinePerimeter;whiteSpace=wrap;html=1;container=0;dropTarget=0;collapsible=0;recursiveResize=0;outlineConnect=0;portConstraint=eastwest;newEdgeStyle={&quot;edgeStyle&quot;:&quot;elbowEdgeStyle&quot;,&quot;elbow&quot;:&quot;vertical&quot;,&quot;curved&quot;:0,&quot;rounded&quot;:0};" vertex="1" parent="1">
          <mxGeometry x="340" y="1550" width="110" height="1120" as="geometry" />
        </mxCell>
        <mxCell id="9RLo80tFeQ4q2x56BKta-5" value="" style="html=1;points=[];perimeter=orthogonalPerimeter;outlineConnect=0;targetShapes=umlLifeline;portConstraint=eastwest;newEdgeStyle={&quot;edgeStyle&quot;:&quot;elbowEdgeStyle&quot;,&quot;elbow&quot;:&quot;vertical&quot;,&quot;curved&quot;:0,&quot;rounded&quot;:0};" vertex="1" parent="9RLo80tFeQ4q2x56BKta-4">
          <mxGeometry x="45" y="80" width="10" height="260" as="geometry" />
        </mxCell>
        <mxCell id="9RLo80tFeQ4q2x56BKta-6" value="" style="html=1;points=[];perimeter=orthogonalPerimeter;outlineConnect=0;targetShapes=umlLifeline;portConstraint=eastwest;newEdgeStyle={&quot;edgeStyle&quot;:&quot;elbowEdgeStyle&quot;,&quot;elbow&quot;:&quot;vertical&quot;,&quot;curved&quot;:0,&quot;rounded&quot;:0};" vertex="1" parent="9RLo80tFeQ4q2x56BKta-4">
          <mxGeometry x="45" y="370" width="10" height="260" as="geometry" />
        </mxCell>
        <mxCell id="9RLo80tFeQ4q2x56BKta-7" value="" style="html=1;points=[];perimeter=orthogonalPerimeter;outlineConnect=0;targetShapes=umlLifeline;portConstraint=eastwest;newEdgeStyle={&quot;edgeStyle&quot;:&quot;elbowEdgeStyle&quot;,&quot;elbow&quot;:&quot;vertical&quot;,&quot;curved&quot;:0,&quot;rounded&quot;:0};" vertex="1" parent="9RLo80tFeQ4q2x56BKta-4">
          <mxGeometry x="45" y="660" width="10" height="210" as="geometry" />
        </mxCell>
        <mxCell id="9RLo80tFeQ4q2x56BKta-8" value="clickCreateEvent()" style="html=1;verticalAlign=bottom;endArrow=block;edgeStyle=elbowEdgeStyle;elbow=vertical;curved=0;rounded=0;" edge="1" parent="1" source="9RLo80tFeQ4q2x56BKta-2" target="9RLo80tFeQ4q2x56BKta-5">
          <mxGeometry relative="1" as="geometry">
            <mxPoint x="185" y="1650" as="sourcePoint" />
            <Array as="points">
              <mxPoint x="170" y="1640" />
            </Array>
          </mxGeometry>
        </mxCell>
        <mxCell id="9RLo80tFeQ4q2x56BKta-9" value="EventController" style="shape=umlLifeline;perimeter=lifelinePerimeter;whiteSpace=wrap;html=1;container=0;dropTarget=0;collapsible=0;recursiveResize=0;outlineConnect=0;portConstraint=eastwest;newEdgeStyle={&quot;edgeStyle&quot;:&quot;elbowEdgeStyle&quot;,&quot;elbow&quot;:&quot;vertical&quot;,&quot;curved&quot;:0,&quot;rounded&quot;:0};" vertex="1" parent="1">
          <mxGeometry x="820" y="1550" width="100" height="1130" as="geometry" />
        </mxCell>
        <mxCell id="9RLo80tFeQ4q2x56BKta-10" value="" style="html=1;points=[];perimeter=orthogonalPerimeter;outlineConnect=0;targetShapes=umlLifeline;portConstraint=eastwest;newEdgeStyle={&quot;edgeStyle&quot;:&quot;elbowEdgeStyle&quot;,&quot;elbow&quot;:&quot;vertical&quot;,&quot;curved&quot;:0,&quot;rounded&quot;:0};" vertex="1" parent="9RLo80tFeQ4q2x56BKta-9">
          <mxGeometry x="45" y="80" width="10" height="250" as="geometry" />
        </mxCell>
        <mxCell id="9RLo80tFeQ4q2x56BKta-11" value="" style="html=1;points=[];perimeter=orthogonalPerimeter;outlineConnect=0;targetShapes=umlLifeline;portConstraint=eastwest;newEdgeStyle={&quot;edgeStyle&quot;:&quot;elbowEdgeStyle&quot;,&quot;elbow&quot;:&quot;vertical&quot;,&quot;curved&quot;:0,&quot;rounded&quot;:0};" vertex="1" parent="9RLo80tFeQ4q2x56BKta-9">
          <mxGeometry x="45" y="390" width="10" height="250" as="geometry" />
        </mxCell>
        <mxCell id="9RLo80tFeQ4q2x56BKta-12" value="" style="html=1;points=[];perimeter=orthogonalPerimeter;outlineConnect=0;targetShapes=umlLifeline;portConstraint=eastwest;newEdgeStyle={&quot;edgeStyle&quot;:&quot;elbowEdgeStyle&quot;,&quot;elbow&quot;:&quot;vertical&quot;,&quot;curved&quot;:0,&quot;rounded&quot;:0};" vertex="1" parent="9RLo80tFeQ4q2x56BKta-9">
          <mxGeometry x="45" y="690" width="10" height="160" as="geometry" />
        </mxCell>
        <mxCell id="9RLo80tFeQ4q2x56BKta-13" value="" style="endArrow=open;endFill=1;endSize=12;html=1;rounded=0;" edge="1" parent="1" target="9RLo80tFeQ4q2x56BKta-10">
          <mxGeometry width="160" relative="1" as="geometry">
            <mxPoint x="400" y="1680" as="sourcePoint" />
            <mxPoint x="605" y="1680" as="targetPoint" />
          </mxGeometry>
        </mxCell>
        <mxCell id="9RLo80tFeQ4q2x56BKta-14" value="createEvent(details)" style="text;html=1;align=center;verticalAlign=middle;resizable=0;points=[];autosize=1;strokeColor=none;fillColor=none;" vertex="1" parent="1">
          <mxGeometry x="430" y="1648" width="130" height="30" as="geometry" />
        </mxCell>
        <mxCell id="9RLo80tFeQ4q2x56BKta-15" value="EventEntity" style="shape=umlLifeline;perimeter=lifelinePerimeter;whiteSpace=wrap;html=1;container=0;dropTarget=0;collapsible=0;recursiveResize=0;outlineConnect=0;portConstraint=eastwest;newEdgeStyle={&quot;edgeStyle&quot;:&quot;elbowEdgeStyle&quot;,&quot;elbow&quot;:&quot;vertical&quot;,&quot;curved&quot;:0,&quot;rounded&quot;:0};" vertex="1" parent="1">
          <mxGeometry x="1240" y="1550" width="100" height="1130" as="geometry" />
        </mxCell>
        <mxCell id="9RLo80tFeQ4q2x56BKta-16" value="" style="html=1;points=[];perimeter=orthogonalPerimeter;outlineConnect=0;targetShapes=umlLifeline;portConstraint=eastwest;newEdgeStyle={&quot;edgeStyle&quot;:&quot;elbowEdgeStyle&quot;,&quot;elbow&quot;:&quot;vertical&quot;,&quot;curved&quot;:0,&quot;rounded&quot;:0};" vertex="1" parent="9RLo80tFeQ4q2x56BKta-15">
          <mxGeometry x="45" y="130" width="10" height="160" as="geometry" />
        </mxCell>
        <mxCell id="9RLo80tFeQ4q2x56BKta-17" value="" style="html=1;points=[];perimeter=orthogonalPerimeter;outlineConnect=0;targetShapes=umlLifeline;portConstraint=eastwest;newEdgeStyle={&quot;edgeStyle&quot;:&quot;elbowEdgeStyle&quot;,&quot;elbow&quot;:&quot;vertical&quot;,&quot;curved&quot;:0,&quot;rounded&quot;:0};" vertex="1" parent="9RLo80tFeQ4q2x56BKta-15">
          <mxGeometry x="45" y="410" width="10" height="160" as="geometry" />
        </mxCell>
        <mxCell id="9RLo80tFeQ4q2x56BKta-18" value="create()" style="html=1;verticalAlign=bottom;endArrow=block;curved=0;rounded=0;" edge="1" parent="1">
          <mxGeometry width="80" relative="1" as="geometry">
            <mxPoint x="1085" y="1740" as="sourcePoint" />
            <mxPoint x="1290" y="1740" as="targetPoint" />
          </mxGeometry>
        </mxCell>
        <mxCell id="9RLo80tFeQ4q2x56BKta-19" value="Event" style="html=1;verticalAlign=bottom;endArrow=open;dashed=1;endSize=8;curved=0;rounded=0;" edge="1" parent="1" target="9RLo80tFeQ4q2x56BKta-21">
          <mxGeometry relative="1" as="geometry">
            <mxPoint x="1290.5" y="1804.5" as="sourcePoint" />
            <mxPoint x="1085" y="1805" as="targetPoint" />
            <Array as="points" />
          </mxGeometry>
        </mxCell>
        <mxCell id="9RLo80tFeQ4q2x56BKta-20" value="ProxyDbController" style="shape=umlLifeline;perimeter=lifelinePerimeter;whiteSpace=wrap;html=1;container=0;dropTarget=0;collapsible=0;recursiveResize=0;outlineConnect=0;portConstraint=eastwest;newEdgeStyle={&quot;edgeStyle&quot;:&quot;elbowEdgeStyle&quot;,&quot;elbow&quot;:&quot;vertical&quot;,&quot;curved&quot;:0,&quot;rounded&quot;:0};" vertex="1" parent="1">
          <mxGeometry x="1025" y="1550" width="100" height="1130" as="geometry" />
        </mxCell>
        <mxCell id="9RLo80tFeQ4q2x56BKta-21" value="" style="html=1;points=[];perimeter=orthogonalPerimeter;outlineConnect=0;targetShapes=umlLifeline;portConstraint=eastwest;newEdgeStyle={&quot;edgeStyle&quot;:&quot;elbowEdgeStyle&quot;,&quot;elbow&quot;:&quot;vertical&quot;,&quot;curved&quot;:0,&quot;rounded&quot;:0};" vertex="1" parent="9RLo80tFeQ4q2x56BKta-20">
          <mxGeometry x="45" y="80" width="10" height="230" as="geometry" />
        </mxCell>
        <mxCell id="9RLo80tFeQ4q2x56BKta-22" value="" style="html=1;points=[];perimeter=orthogonalPerimeter;outlineConnect=0;targetShapes=umlLifeline;portConstraint=eastwest;newEdgeStyle={&quot;edgeStyle&quot;:&quot;elbowEdgeStyle&quot;,&quot;elbow&quot;:&quot;vertical&quot;,&quot;curved&quot;:0,&quot;rounded&quot;:0};" vertex="1" parent="9RLo80tFeQ4q2x56BKta-20">
          <mxGeometry x="45" y="370" width="10" height="230" as="geometry" />
        </mxCell>
        <mxCell id="9RLo80tFeQ4q2x56BKta-23" value="" style="html=1;points=[];perimeter=orthogonalPerimeter;outlineConnect=0;targetShapes=umlLifeline;portConstraint=eastwest;newEdgeStyle={&quot;edgeStyle&quot;:&quot;elbowEdgeStyle&quot;,&quot;elbow&quot;:&quot;vertical&quot;,&quot;curved&quot;:0,&quot;rounded&quot;:0};" vertex="1" parent="9RLo80tFeQ4q2x56BKta-20">
          <mxGeometry x="45" y="760" width="10" height="70" as="geometry" />
        </mxCell>
        <mxCell id="9RLo80tFeQ4q2x56BKta-24" value="createEvent(details)" style="html=1;verticalAlign=bottom;endArrow=block;curved=0;rounded=0;" edge="1" parent="1" source="9RLo80tFeQ4q2x56BKta-9">
          <mxGeometry width="80" relative="1" as="geometry">
            <mxPoint x="985" y="1710" as="sourcePoint" />
            <mxPoint x="1065" y="1710" as="targetPoint" />
          </mxGeometry>
        </mxCell>
        <mxCell id="9RLo80tFeQ4q2x56BKta-25" value="[Event]" style="html=1;verticalAlign=bottom;endArrow=open;dashed=1;endSize=8;curved=0;rounded=0;" edge="1" parent="1" target="9RLo80tFeQ4q2x56BKta-10">
          <mxGeometry relative="1" as="geometry">
            <mxPoint x="1080.5" y="1840" as="sourcePoint" />
            <mxPoint x="1285" y="1840" as="targetPoint" />
            <Array as="points" />
          </mxGeometry>
        </mxCell>
        <mxCell id="9RLo80tFeQ4q2x56BKta-26" value="Alt" style="shape=umlFrame;whiteSpace=wrap;html=1;pointerEvents=0;" vertex="1" parent="1">
          <mxGeometry x="70" y="1610" width="1240" height="1070" as="geometry" />
        </mxCell>
        <mxCell id="9RLo80tFeQ4q2x56BKta-27" value="[User selects Create Event]" style="text;html=1;align=center;verticalAlign=middle;resizable=0;points=[];autosize=1;strokeColor=none;fillColor=none;" vertex="1" parent="1">
          <mxGeometry x="455" y="1608" width="170" height="30" as="geometry" />
        </mxCell>
        <mxCell id="9RLo80tFeQ4q2x56BKta-28" value="[Event]" style="html=1;verticalAlign=bottom;endArrow=open;dashed=1;endSize=8;curved=0;rounded=0;" edge="1" parent="1" source="9RLo80tFeQ4q2x56BKta-10">
          <mxGeometry relative="1" as="geometry">
            <mxPoint x="610.5" y="1870" as="sourcePoint" />
            <mxPoint x="400" y="1870" as="targetPoint" />
            <Array as="points" />
          </mxGeometry>
        </mxCell>
        <mxCell id="9RLo80tFeQ4q2x56BKta-29" value="displayEvet()" style="html=1;verticalAlign=bottom;endArrow=open;dashed=1;endSize=8;curved=0;rounded=0;" edge="1" parent="1" target="9RLo80tFeQ4q2x56BKta-2">
          <mxGeometry relative="1" as="geometry">
            <mxPoint x="390.5" y="1890" as="sourcePoint" />
            <mxPoint x="180" y="1890" as="targetPoint" />
            <Array as="points" />
          </mxGeometry>
        </mxCell>
        <mxCell id="9RLo80tFeQ4q2x56BKta-30" value="" style="endArrow=none;dashed=1;html=1;dashPattern=1 3;strokeWidth=2;rounded=0;entryX=0.999;entryY=0.28;entryDx=0;entryDy=0;entryPerimeter=0;" edge="1" parent="1" target="9RLo80tFeQ4q2x56BKta-26">
          <mxGeometry width="50" height="50" relative="1" as="geometry">
            <mxPoint x="81.91" y="1910" as="sourcePoint" />
            <mxPoint x="1099.9999999999998" y="1910" as="targetPoint" />
          </mxGeometry>
        </mxCell>
        <mxCell id="9RLo80tFeQ4q2x56BKta-31" value="[User selects&amp;nbsp; Edit Event]" style="text;html=1;align=center;verticalAlign=middle;resizable=0;points=[];autosize=1;strokeColor=none;fillColor=none;" vertex="1" parent="1">
          <mxGeometry x="435" y="1910" width="160" height="30" as="geometry" />
        </mxCell>
        <mxCell id="9RLo80tFeQ4q2x56BKta-32" value="" style="html=1;verticalAlign=bottom;endArrow=block;edgeStyle=elbowEdgeStyle;elbow=vertical;curved=0;rounded=0;" edge="1" parent="1">
          <mxGeometry relative="1" as="geometry">
            <mxPoint x="90" y="1950" as="sourcePoint" />
            <Array as="points">
              <mxPoint x="175" y="1950" />
            </Array>
            <mxPoint x="370" y="1950" as="targetPoint" />
          </mxGeometry>
        </mxCell>
        <mxCell id="9RLo80tFeQ4q2x56BKta-33" value="" style="endArrow=open;endFill=1;endSize=12;html=1;rounded=0;" edge="1" parent="1" target="9RLo80tFeQ4q2x56BKta-9">
          <mxGeometry width="160" relative="1" as="geometry">
            <mxPoint x="400" y="1980" as="sourcePoint" />
            <mxPoint x="602.75" y="1980" as="targetPoint" />
          </mxGeometry>
        </mxCell>
        <mxCell id="9RLo80tFeQ4q2x56BKta-34" value="editEvent(details)" style="text;html=1;align=center;verticalAlign=middle;resizable=0;points=[];autosize=1;strokeColor=none;fillColor=none;" vertex="1" parent="1">
          <mxGeometry x="460" y="1958" width="120" height="30" as="geometry" />
        </mxCell>
        <mxCell id="9RLo80tFeQ4q2x56BKta-35" value="editEvent(details)" style="html=1;verticalAlign=bottom;endArrow=block;curved=0;rounded=0;" edge="1" parent="1">
          <mxGeometry width="80" relative="1" as="geometry">
            <mxPoint x="874" y="2000" as="sourcePoint" />
            <mxPoint x="1075" y="2000" as="targetPoint" />
          </mxGeometry>
        </mxCell>
        <mxCell id="9RLo80tFeQ4q2x56BKta-36" value="create()" style="html=1;verticalAlign=bottom;endArrow=block;curved=0;rounded=0;entryX=0;entryY=0.375;entryDx=0;entryDy=0;entryPerimeter=0;" edge="1" parent="1" target="9RLo80tFeQ4q2x56BKta-17">
          <mxGeometry width="80" relative="1" as="geometry">
            <mxPoint x="1085" y="2020" as="sourcePoint" />
            <mxPoint x="1295" y="2020" as="targetPoint" />
          </mxGeometry>
        </mxCell>
        <mxCell id="9RLo80tFeQ4q2x56BKta-37" value="Event" style="html=1;verticalAlign=bottom;endArrow=open;dashed=1;endSize=8;curved=0;rounded=0;" edge="1" parent="1" source="9RLo80tFeQ4q2x56BKta-17">
          <mxGeometry relative="1" as="geometry">
            <mxPoint x="1290.5" y="2080" as="sourcePoint" />
            <mxPoint x="1085" y="2080.5" as="targetPoint" />
            <Array as="points" />
          </mxGeometry>
        </mxCell>
        <mxCell id="9RLo80tFeQ4q2x56BKta-38" value="[Event]" style="html=1;verticalAlign=bottom;endArrow=open;dashed=1;endSize=8;curved=0;rounded=0;" edge="1" parent="1">
          <mxGeometry relative="1" as="geometry">
            <mxPoint x="1075.5" y="2110" as="sourcePoint" />
            <mxPoint x="865" y="2110" as="targetPoint" />
            <Array as="points" />
          </mxGeometry>
        </mxCell>
        <mxCell id="9RLo80tFeQ4q2x56BKta-39" value="[Event]" style="html=1;verticalAlign=bottom;endArrow=open;dashed=1;endSize=8;curved=0;rounded=0;" edge="1" parent="1" source="9RLo80tFeQ4q2x56BKta-11">
          <mxGeometry x="-0.0024" relative="1" as="geometry">
            <mxPoint x="610.5" y="2150" as="sourcePoint" />
            <mxPoint x="400" y="2150" as="targetPoint" />
            <Array as="points" />
            <mxPoint as="offset" />
          </mxGeometry>
        </mxCell>
        <mxCell id="9RLo80tFeQ4q2x56BKta-40" value="displayEvent()" style="html=1;verticalAlign=bottom;endArrow=open;dashed=1;endSize=8;curved=0;rounded=0;" edge="1" parent="1">
          <mxGeometry relative="1" as="geometry">
            <mxPoint x="385.5" y="2180" as="sourcePoint" />
            <mxPoint x="80" y="2180" as="targetPoint" />
            <Array as="points" />
          </mxGeometry>
        </mxCell>
        <mxCell id="9RLo80tFeQ4q2x56BKta-41" value="" style="endArrow=none;dashed=1;html=1;dashPattern=1 3;strokeWidth=2;rounded=0;entryX=0.998;entryY=0.56;entryDx=0;entryDy=0;entryPerimeter=0;" edge="1" parent="1" target="9RLo80tFeQ4q2x56BKta-26">
          <mxGeometry width="50" height="50" relative="1" as="geometry">
            <mxPoint x="81.91" y="2210" as="sourcePoint" />
            <mxPoint x="1099.9999999999998" y="2210" as="targetPoint" />
          </mxGeometry>
        </mxCell>
        <mxCell id="9RLo80tFeQ4q2x56BKta-42" value="[User selects&amp;nbsp; delete Event]" style="text;html=1;align=center;verticalAlign=middle;resizable=0;points=[];autosize=1;strokeColor=none;fillColor=none;" vertex="1" parent="1">
          <mxGeometry x="425" y="2210" width="170" height="30" as="geometry" />
        </mxCell>
        <mxCell id="9RLo80tFeQ4q2x56BKta-43" value="clickEditEvent()" style="text;html=1;align=center;verticalAlign=middle;resizable=0;points=[];autosize=1;strokeColor=none;fillColor=none;" vertex="1" parent="1">
          <mxGeometry x="165" y="1918" width="110" height="30" as="geometry" />
        </mxCell>
        <mxCell id="9RLo80tFeQ4q2x56BKta-44" value="" style="html=1;verticalAlign=bottom;endArrow=block;edgeStyle=elbowEdgeStyle;elbow=vertical;curved=0;rounded=0;" edge="1" parent="1">
          <mxGeometry relative="1" as="geometry">
            <mxPoint x="80" y="2240" as="sourcePoint" />
            <Array as="points">
              <mxPoint x="165" y="2240" />
            </Array>
            <mxPoint x="370" y="2240" as="targetPoint" />
          </mxGeometry>
        </mxCell>
        <mxCell id="9RLo80tFeQ4q2x56BKta-45" value="clickDeleteEvent" style="text;html=1;align=center;verticalAlign=middle;resizable=0;points=[];autosize=1;strokeColor=none;fillColor=none;" vertex="1" parent="1">
          <mxGeometry x="175" y="2218" width="110" height="30" as="geometry" />
        </mxCell>
        <mxCell id="9RLo80tFeQ4q2x56BKta-46" value="" style="endArrow=open;endFill=1;endSize=12;html=1;rounded=0;" edge="1" parent="1">
          <mxGeometry width="160" relative="1" as="geometry">
            <mxPoint x="397.25" y="2280" as="sourcePoint" />
            <mxPoint x="612.75" y="2280" as="targetPoint" />
          </mxGeometry>
        </mxCell>
        <mxCell id="9RLo80tFeQ4q2x56BKta-47" value="deleteEvent(eventname)" style="text;html=1;align=center;verticalAlign=middle;resizable=0;points=[];autosize=1;strokeColor=none;fillColor=none;" vertex="1" parent="1">
          <mxGeometry x="405" y="2248" width="150" height="30" as="geometry" />
        </mxCell>
        <mxCell id="9RLo80tFeQ4q2x56BKta-48" value="deleteEvent(details)" style="html=1;verticalAlign=bottom;endArrow=block;curved=0;rounded=0;" edge="1" parent="1">
          <mxGeometry width="80" relative="1" as="geometry">
            <mxPoint x="870" y="2344.5" as="sourcePoint" />
            <mxPoint x="1071" y="2344.5" as="targetPoint" />
          </mxGeometry>
        </mxCell>
        <mxCell id="9RLo80tFeQ4q2x56BKta-49" value="PopUpDialog" style="rounded=0;whiteSpace=wrap;html=1;" vertex="1" parent="1">
          <mxGeometry x="560" y="1550" width="110" height="40" as="geometry" />
        </mxCell>
        <mxCell id="9RLo80tFeQ4q2x56BKta-50" value="" style="endArrow=none;dashed=1;html=1;dashPattern=1 3;strokeWidth=2;rounded=0;entryX=0.5;entryY=1;entryDx=0;entryDy=0;exitX=0.534;exitY=1;exitDx=0;exitDy=0;exitPerimeter=0;" edge="1" parent="1" source="9RLo80tFeQ4q2x56BKta-53" target="9RLo80tFeQ4q2x56BKta-49">
          <mxGeometry width="50" height="50" relative="1" as="geometry">
            <mxPoint x="620" y="1850" as="sourcePoint" />
            <mxPoint x="670" y="1800" as="targetPoint" />
          </mxGeometry>
        </mxCell>
        <mxCell id="9RLo80tFeQ4q2x56BKta-51" value="alt" style="shape=umlFrame;whiteSpace=wrap;html=1;pointerEvents=0;" vertex="1" parent="1">
          <mxGeometry x="610" y="2240" width="270" height="180" as="geometry" />
        </mxCell>
        <mxCell id="9RLo80tFeQ4q2x56BKta-52" value="" style="endArrow=none;dashed=1;html=1;dashPattern=1 3;strokeWidth=2;rounded=0;entryX=0.5;entryY=1;entryDx=0;entryDy=0;exitX=0.44;exitY=1;exitDx=0;exitDy=0;exitPerimeter=0;" edge="1" parent="1" source="9RLo80tFeQ4q2x56BKta-26" target="9RLo80tFeQ4q2x56BKta-53">
          <mxGeometry width="50" height="50" relative="1" as="geometry">
            <mxPoint x="620" y="2680" as="sourcePoint" />
            <mxPoint x="615" y="1590" as="targetPoint" />
          </mxGeometry>
        </mxCell>
        <mxCell id="9RLo80tFeQ4q2x56BKta-53" value="" style="html=1;points=[[0,0,0,0,5],[0,1,0,0,-5],[1,0,0,0,5],[1,1,0,0,-5]];perimeter=orthogonalPerimeter;outlineConnect=0;targetShapes=umlLifeline;portConstraint=eastwest;newEdgeStyle={&quot;curved&quot;:0,&quot;rounded&quot;:0};" vertex="1" parent="1">
          <mxGeometry x="615" y="2248" width="10" height="112" as="geometry" />
        </mxCell>
        <mxCell id="9RLo80tFeQ4q2x56BKta-54" value="" style="endArrow=none;dashed=1;html=1;dashPattern=1 3;strokeWidth=2;rounded=0;entryX=1.001;entryY=0.536;entryDx=0;entryDy=0;entryPerimeter=0;exitX=-0.007;exitY=0.54;exitDx=0;exitDy=0;exitPerimeter=0;" edge="1" parent="1" source="9RLo80tFeQ4q2x56BKta-51" target="9RLo80tFeQ4q2x56BKta-51">
          <mxGeometry width="50" height="50" relative="1" as="geometry">
            <mxPoint x="700" y="2355" as="sourcePoint" />
            <mxPoint x="750" y="2305" as="targetPoint" />
          </mxGeometry>
        </mxCell>
        <mxCell id="9RLo80tFeQ4q2x56BKta-55" value="Users confirms deletion" style="text;html=1;align=center;verticalAlign=middle;resizable=0;points=[];autosize=1;strokeColor=none;fillColor=none;" vertex="1" parent="1">
          <mxGeometry x="665" y="2240" width="150" height="30" as="geometry" />
        </mxCell>
        <mxCell id="9RLo80tFeQ4q2x56BKta-56" value="Users declines deletion" style="text;html=1;align=center;verticalAlign=middle;resizable=0;points=[];autosize=1;strokeColor=none;fillColor=none;" vertex="1" parent="1">
          <mxGeometry x="670" y="2330" width="150" height="30" as="geometry" />
        </mxCell>
        <mxCell id="9RLo80tFeQ4q2x56BKta-57" value="" style="endArrow=classic;html=1;rounded=0;" edge="1" parent="1" target="9RLo80tFeQ4q2x56BKta-7">
          <mxGeometry width="50" height="50" relative="1" as="geometry">
            <mxPoint x="625" y="2355" as="sourcePoint" />
            <mxPoint x="410" y="2400" as="targetPoint" />
            <Array as="points">
              <mxPoint x="670" y="2355" />
              <mxPoint x="670" y="2400" />
            </Array>
          </mxGeometry>
        </mxCell>
        <mxCell id="9RLo80tFeQ4q2x56BKta-58" value="popDialog()" style="text;html=1;align=center;verticalAlign=middle;resizable=0;points=[];autosize=1;strokeColor=none;fillColor=none;" vertex="1" parent="1">
          <mxGeometry x="465" y="2368" width="90" height="30" as="geometry" />
        </mxCell>
        <mxCell id="9RLo80tFeQ4q2x56BKta-59" value="" style="endArrow=classic;html=1;rounded=0;" edge="1" parent="1" source="9RLo80tFeQ4q2x56BKta-53">
          <mxGeometry width="50" height="50" relative="1" as="geometry">
            <mxPoint x="680" y="2320" as="sourcePoint" />
            <mxPoint x="870" y="2304" as="targetPoint" />
          </mxGeometry>
        </mxCell>
        <mxCell id="9RLo80tFeQ4q2x56BKta-60" value="deleteEvent()" style="text;html=1;align=center;verticalAlign=middle;resizable=0;points=[];autosize=1;strokeColor=none;fillColor=none;" vertex="1" parent="1">
          <mxGeometry x="680" y="2278" width="90" height="30" as="geometry" />
        </mxCell>
      </root>
    </mxGraphModel>
  </diagram>
</mxfile>
